<svg id="Layer_1" data-name="Layer 1" xmlns="http://www.w3.org/2000/svg" viewBox="0 0 316.05 316.05"><defs><style>.cls-1{fill:#00a1b9;}</style></defs><title>ico-Experto</title><path class="cls-1" d="M158,15a143,143,0,1,0,143,143A143,143,0,0,0,158,15Zm0,259.24A116.21,116.21,0,1,1,274.24,158,116.2,116.2,0,0,1,158,274.24Z"/><path class="cls-1" d="M251.38,257.59a6.29,6.29,0,0,1-2.42,2.94c-1.4.88-34.87,22.25-90.86,22.25s-89.47-21.32-90.86-22.25a6,6,0,0,1-2.42-2.94c-2.47-6.23-2.42-18.66-2.38-21.08v-.14a8.7,8.7,0,0,0,.05-1.16c.28-9.17.88-30.73,21.08-37.66l.47-.14c21.09-5.35,38.45-17.46,38.63-17.6,1.49-1,4.54-5.76,7.4-9.61a41.14,41.14,0,0,1-5.63-5.28c-17.92-20.2-14.94-54.83-14.61-58.14,1.16-25,13.08-36.86,22.85-42.4a51.85,51.85,0,0,1,25-6.38h.8a51.84,51.84,0,0,1,25,6.56C193.24,70.1,205,82,206.13,106.78c.33,3.31,3.31,37.94-14.61,58.14a43,43,0,0,1-6.22,5.73c3.13,3.54,6.55,8.13,8.08,9.21.19.14,17.64,12.24,38.63,17.6l.47.14c20.2,6.88,20.81,28.44,21.09,37.65,0,.42,0,.79,0,1.17v.14C253.66,239,253.7,251.4,251.38,257.59Zm-66.86,8.61-5.06-29.51,21.44-20.9-29.62-4.3L158,184.64l-13.25,26.85-29.63,4.3,21.44,20.9-5.06,29.51L158,252.26Z"/></svg>