<svg id="Layer_1" data-name="Layer 1" xmlns="http://www.w3.org/2000/svg" viewBox="0 0 316.05 316.05"><defs><style>.cls-1{fill:#00a1b9;}</style></defs><title>ico-Alertas</title><path class="cls-1" d="M158,15a143,143,0,1,0,143,143A143,143,0,0,0,158,15Zm0,259.24A116.21,116.21,0,1,1,274.24,158,116.2,116.2,0,0,1,158,274.24Z"/><path class="cls-1" d="M158,74.73c-10.25,0-22,5.34-22,14l5,79.2c0,8.64,6.75,14,17,14,10,0,17-5.55,17-14l5-79.2C180,80.28,168,74.73,158,74.73Z"/><path class="cls-1" d="M158,198a22.58,22.58,0,1,0,22.56,22.59A22.61,22.61,0,0,0,158,198Z"/></svg>