<svg id="Capa_1" data-name="Capa 1" xmlns="http://www.w3.org/2000/svg" viewBox="0 0 32 32"><defs><style>.cls-1{fill:#000307;}.cls-2{fill:#000206;}</style></defs><title>icono-in-out</title><path class="cls-1" d="M18.05,15,11.28,8.18a1.34,1.34,0,0,0-1.89,0L8.61,9a1.32,1.32,0,0,0,0,1.87l3.05,3.06H4.34a1.12,1.12,0,0,0-.88.39,1.43,1.43,0,0,0-.34.94v1.33a1.43,1.43,0,0,0,.34.95,1.12,1.12,0,0,0,.88.39h7.32l-3.05,3a1.31,1.31,0,0,0-.39.95,1.28,1.28,0,0,0,.39.94l.78.78a1.34,1.34,0,0,0,1.89,0l6.77-6.77a1.29,1.29,0,0,0,.38-.94A1.27,1.27,0,0,0,18.05,15Z"/><path class="cls-2" d="M26.58,31H14a2.3,2.3,0,0,1,0-4.6H24.28V5.64H14A2.3,2.3,0,0,1,14,1H26.58a2.3,2.3,0,0,1,2.3,2.3V28.66A2.3,2.3,0,0,1,26.58,31Z"/></svg>