<svg id="Capa_1" data-name="Capa 1" xmlns="http://www.w3.org/2000/svg" viewBox="0 0 32 32"><defs><style>.cls-1{fill:#000307;}.cls-2{fill:#000206;}</style></defs><title>icono-in-out</title><path class="cls-1" d="M14,17.05l6.77,6.77a1.34,1.34,0,0,0,1.89,0l.78-.78a1.32,1.32,0,0,0,0-1.87l-3.05-3.06h7.32a1.12,1.12,0,0,0,.88-.39,1.43,1.43,0,0,0,.34-.94V15.45a1.43,1.43,0,0,0-.34-.95,1.12,1.12,0,0,0-.88-.39H20.34l3.05-3a1.31,1.31,0,0,0,.39-1,1.28,1.28,0,0,0-.39-.94l-.78-.78a1.34,1.34,0,0,0-1.89,0L14,15.17a1.29,1.29,0,0,0-.38.94A1.27,1.27,0,0,0,14,17.05Z"/><path class="cls-2" d="M5.42,1H18a2.3,2.3,0,1,1,0,4.6H7.72V26.36H18A2.3,2.3,0,0,1,18,31H5.42a2.3,2.3,0,0,1-2.3-2.3V3.34A2.3,2.3,0,0,1,5.42,1Z"/></svg>